<svg width="49" height="49" viewBox="0 0 49 49" fill="none" xmlns="http://www.w3.org/2000/svg">
<path d="M8.95095 10.5097C18.3409 22.427 27.7309 34.3442 37.1243 46.2614C38.7216 48.4914 41.598 49.3315 43.9766 48.3462C46.0164 47.4991 47.3855 45.4421 47.4305 43.1292C47.427 30.3511 47.4235 17.5695 47.4166 4.79139C47.2196 2.921 46.1132 1.29263 44.4987 0.594257C42.3621 -0.332294 39.6412 0.50091 38.1649 2.71011C35.1606 8.22793 32.1562 13.7492 29.1518 19.267C32.7889 16.394 36.4259 13.521 40.063 10.648C40.063 19.9101 40.063 29.1756 40.063 38.4376C30.6765 26.5204 21.2865 14.6031 11.8931 2.68591C10.3753 0.525111 7.60952 -0.339208 5.23437 0.552769C3.09086 1.35832 1.63189 3.44997 1.5904 5.81475C1.58349 18.3543 1.57657 30.8904 1.56966 43.4299C1.4936 46.0782 3.33287 48.3289 5.70802 48.7334C7.68213 49.0688 9.74266 48.08 10.849 46.2407C13.9294 40.7782 17.0099 35.3192 20.0903 29.8567C16.3772 32.6709 12.6606 35.4851 8.94749 38.3028C8.95095 29.0373 8.95095 19.7752 8.95095 10.5097Z" fill="url(#paint0_radial_1768_683)"/>
<defs>
<radialGradient id="paint0_radial_1768_683" cx="0" cy="0" r="1" gradientUnits="userSpaceOnUse" gradientTransform="translate(24.5004 24.5) scale(34.4642)">
<stop stop-color="#B5B5B5"/>
<stop offset="0.2643" stop-color="#C5C4C4"/>
<stop offset="0.7863" stop-color="white"/>
<stop offset="1" stop-color="white"/>
</radialGradient>
</defs>
</svg>
